# xmcd
#
# Track frame offsets:
#	150
#	28965
#	52147
#	90987
#	104570
#	130090
#	160420
#	178422
#	198595
#	217580
#	245002
#	272065
#	292977
#
# Disc length: 4218 seconds
# Revision: 5
# Processed by: cddbd v1.5.2PL0 Copyright (c) Steve Scherf et al.
# Submitted via: dBpowerAMP V12.0
#
DISCID=c410780d
DTITLE=Rory Gallagher - Live! In Europe - Stage Struck
DYEAR=1972
DGENRE=Blues-Rock
TTITLE0=Messin' With The Kid
TTITLE1=Laundromat
TTITLE2=I Could've Had Religion
TTITLE3=Pistol Slapper Blues
TTITLE4=Going To My Home Town
TTITLE5=Bullfrog Blues
TTITLE6=Shin Kicker
TTITLE7=Wayward Child
TTITLE8=Brute Force And Arrogance
TTITLE9=Moonchild
TTITLE10=Follow Me
TTITLE11=Bought And Sold
TTITLE12=Shadow Play
EXTD=
EXTT0=
EXTT1=
EXTT2=
EXTT3=
EXTT4=
EXTT5=
EXTT6=
EXTT7=
EXTT8=
EXTT9=
EXTT10=
EXTT11=
EXTT12=
PLAYORDER=
